<mxfile host="app.diagrams.net" agent="Mozilla/5.0 (Windows NT 10.0; Win64; x64) AppleWebKit/537.36 (KHTML, like Gecko) Chrome/129.0.0.0 Safari/537.36" version="24.7.17">
  <diagram name="use case diagram user" id="cB-UJzJPYV8B_gB7_KgQ">
    <mxGraphModel dx="880" dy="472" grid="1" gridSize="10" guides="1" tooltips="1" connect="1" arrows="1" fold="1" page="1" pageScale="1" pageWidth="827" pageHeight="1169" math="0" shadow="0">
      <root>
        <mxCell id="0" />
        <mxCell id="1" parent="0" />
        <mxCell id="pqziPS04OuwMHYhjT5hE-1" value="" style="html=1;whiteSpace=wrap;fontStyle=1;fontSize=16;" vertex="1" parent="1">
          <mxGeometry x="220" y="50" width="490" height="440" as="geometry" />
        </mxCell>
        <mxCell id="pqziPS04OuwMHYhjT5hE-10" style="rounded=0;orthogonalLoop=1;jettySize=auto;html=1;endArrow=none;endFill=0;" edge="1" parent="1" source="pqziPS04OuwMHYhjT5hE-2">
          <mxGeometry relative="1" as="geometry">
            <mxPoint x="290" y="110" as="targetPoint" />
          </mxGeometry>
        </mxCell>
        <mxCell id="pqziPS04OuwMHYhjT5hE-11" style="rounded=0;orthogonalLoop=1;jettySize=auto;html=1;endArrow=none;endFill=0;" edge="1" parent="1" source="pqziPS04OuwMHYhjT5hE-2" target="pqziPS04OuwMHYhjT5hE-4">
          <mxGeometry relative="1" as="geometry" />
        </mxCell>
        <mxCell id="pqziPS04OuwMHYhjT5hE-12" style="edgeStyle=none;rounded=0;orthogonalLoop=1;jettySize=auto;html=1;endArrow=none;endFill=0;entryX=0;entryY=0.5;entryDx=0;entryDy=0;" edge="1" parent="1" source="pqziPS04OuwMHYhjT5hE-2" target="pqziPS04OuwMHYhjT5hE-5">
          <mxGeometry relative="1" as="geometry" />
        </mxCell>
        <mxCell id="pqziPS04OuwMHYhjT5hE-17" style="edgeStyle=none;rounded=0;orthogonalLoop=1;jettySize=auto;html=1;entryX=0;entryY=0.5;entryDx=0;entryDy=0;endArrow=none;endFill=0;" edge="1" parent="1" source="pqziPS04OuwMHYhjT5hE-2" target="pqziPS04OuwMHYhjT5hE-14">
          <mxGeometry relative="1" as="geometry" />
        </mxCell>
        <mxCell id="pqziPS04OuwMHYhjT5hE-2" value="Guru" style="shape=umlActor;verticalLabelPosition=bottom;verticalAlign=top;html=1;fontStyle=1;fontSize=16;" vertex="1" parent="1">
          <mxGeometry x="134" y="180" width="30" height="60" as="geometry" />
        </mxCell>
        <mxCell id="pqziPS04OuwMHYhjT5hE-3" value="Login" style="ellipse;whiteSpace=wrap;html=1;fontStyle=1;fontSize=16;" vertex="1" parent="1">
          <mxGeometry x="290" y="70" width="140" height="70" as="geometry" />
        </mxCell>
        <mxCell id="pqziPS04OuwMHYhjT5hE-4" value="Absensi" style="ellipse;whiteSpace=wrap;html=1;fontStyle=1;fontSize=16;" vertex="1" parent="1">
          <mxGeometry x="290" y="150" width="140" height="70" as="geometry" />
        </mxCell>
        <mxCell id="pqziPS04OuwMHYhjT5hE-5" value="Manipulasi&amp;nbsp;&lt;div&gt;Nilai&lt;/div&gt;" style="ellipse;whiteSpace=wrap;html=1;fontStyle=1;fontSize=16;" vertex="1" parent="1">
          <mxGeometry x="290" y="230" width="140" height="70" as="geometry" />
        </mxCell>
        <mxCell id="pqziPS04OuwMHYhjT5hE-6" value="Laporan" style="ellipse;whiteSpace=wrap;html=1;fontStyle=1;fontSize=16;" vertex="1" parent="1">
          <mxGeometry x="290" y="310" width="140" height="70" as="geometry" />
        </mxCell>
        <mxCell id="pqziPS04OuwMHYhjT5hE-7" value="Register" style="ellipse;whiteSpace=wrap;html=1;fontStyle=1;fontSize=16;" vertex="1" parent="1">
          <mxGeometry x="520" y="70" width="140" height="70" as="geometry" />
        </mxCell>
        <mxCell id="pqziPS04OuwMHYhjT5hE-13" style="edgeStyle=none;rounded=0;orthogonalLoop=1;jettySize=auto;html=1;endArrow=none;endFill=0;entryX=0;entryY=0.5;entryDx=0;entryDy=0;" edge="1" parent="1" source="pqziPS04OuwMHYhjT5hE-2" target="pqziPS04OuwMHYhjT5hE-6">
          <mxGeometry relative="1" as="geometry">
            <mxPoint x="299" y="340" as="targetPoint" />
          </mxGeometry>
        </mxCell>
        <mxCell id="pqziPS04OuwMHYhjT5hE-14" value="Log-out" style="ellipse;whiteSpace=wrap;html=1;fontStyle=1;fontSize=16;" vertex="1" parent="1">
          <mxGeometry x="290" y="390" width="140" height="70" as="geometry" />
        </mxCell>
        <mxCell id="pqziPS04OuwMHYhjT5hE-15" value="Use" style="endArrow=open;endSize=12;dashed=1;html=1;rounded=0;exitX=1;exitY=0.5;exitDx=0;exitDy=0;entryX=0;entryY=0.5;entryDx=0;entryDy=0;" edge="1" parent="1" source="pqziPS04OuwMHYhjT5hE-3" target="pqziPS04OuwMHYhjT5hE-7">
          <mxGeometry width="160" relative="1" as="geometry">
            <mxPoint x="330" y="230" as="sourcePoint" />
            <mxPoint x="490" y="230" as="targetPoint" />
          </mxGeometry>
        </mxCell>
      </root>
    </mxGraphModel>
  </diagram>
</mxfile>
